<svg xmlns="http://www.w3.org/2000/svg"  viewBox="0 0 64 64" width="64px" height="64px"><ellipse cx="32" cy="61" opacity=".3" rx="15" ry="3"/><path fill="#a7b3c7" d="M32,42L32,42c-6.627,0-12-5.373-12-12V18c0-6.627,5.373-12,12-12h0c6.627,0,12,5.373,12,12v12	C44,36.627,38.627,42,32,42z"/><path fill="#a7b3c7" d="M32,51c-11.58,0-21-9.42-21-21c0-1.657,1.343-3,3-3s3,1.343,3,3c0,8.271,6.729,15,15,15 s15-6.729,15-15c0-1.657,1.343-3,3-3s3,1.343,3,3C53,41.58,43.58,51,32,51z"/><path fill="#a7b3c7" d="M32,57c-1.657,0-3-1.343-3-3v-6c0-1.657,1.343-3,3-3s3,1.343,3,3v6C35,55.657,33.657,57,32,57z"/><path fill="#6f7b91" d="M44,25h-5c-1.104,0-2,0.896-2,2s0.896,2,2,2h5V25z"/><path fill="#6f7b91" d="M37,20c0,1.104,0.896,2,2,2h5v-4h-5C37.896,18,37,18.896,37,20z"/><path fill="#6f7b91" d="M25,22c1.104,0,2-0.896,2-2s-0.896-2-2-2h-5v4H25z"/><path fill="#6f7b91" d="M27,27c0-1.104-0.896-2-2-2h-5v4h5C26.104,29,27,28.104,27,27z"/><g><path d="M39,30c0,3.86-3.14,7-7,7c-2.402,0-4.405,1.695-4.886,3.953C28.607,41.621,30.258,42,32,42 c6.627,0,12-5.373,12-12v-5C41.239,25,39,27.239,39,30z" opacity=".15"/><path fill="#fff" d="M25,18c0-3.86,3.14-7,7-7c2.402,0,4.405-1.695,4.886-3.953C35.393,6.379,33.742,6,32,6 c-6.627,0-12,5.373-12,12v5C22.761,23,25,20.761,25,18z" opacity=".3"/></g><path fill="none" stroke="#fff" stroke-linecap="round" stroke-miterlimit="10" stroke-width="3" d="M24.63,14.889	c0.405-0.957,0.992-1.819,1.716-2.543s1.586-1.311,2.543-1.716"/></svg>